<?xml version="1.0" encoding="utf-8"?>
<!-- Generator: Adobe Illustrator 28.0.0, SVG Export Plug-In . SVG Version: 6.00 Build 0)  -->
<svg version="1.1" id="Layer_1" xmlns="http://www.w3.org/2000/svg" xmlns:xlink="http://www.w3.org/1999/xlink" x="0px" y="0px"
	 viewBox="0 0 512 512" style="enable-background:new 0 0 512 512;" xml:space="preserve">
<style type="text/css">
	.st0{fill:#8331A7;}
	.st1{fill:#F7D99C;}
	.st2{fill:#D1D1D1;}
	.st3{fill:#916B9C;}
	.st4{fill:#DACBE0;}
	.st5{fill:#FFFFFF;}
	.st6{fill:#E6E5F0;}
</style>
<path class="st0" d="M501,262c0,135.3-109.7,245-245,245S11,397.3,11,262S120.7,17,256,17S501,126.7,501,262z"/>
<path class="st1" d="M95.7,371.6l-9.5,9.2c-1.4,1.4-2,3.3-1.7,5.2l2.2,13c0.8,4.8-4.2,8.5-8.6,6.2l-11.7-6.2c-1.7-0.9-3.8-0.9-5.5,0
	l-5.9,3.1c-8.7-12.5-16.3-25.8-22.6-39.8c0.7-0.5,1.6-0.9,2.6-1l13.1-1.9c1.9-0.3,3.6-1.5,4.4-3.2l5.9-11.9c2.2-4.4,8.4-4.4,10.6,0
	l5.9,11.9c0.9,1.7,2.5,3,4.4,3.2l13.1,1.9C97.3,362.2,99.2,368.2,95.7,371.6z"/>
<path class="st2" d="M146.5,344.5l5.9,11.9c0.9,1.7,2.5,3,4.4,3.2l13.1,1.9c4.8,0.7,6.8,6.7,3.3,10.1l-9.5,9.2
	c-1.4,1.4-2,3.3-1.7,5.2l2.2,13c0.8,4.8-4.2,8.5-8.6,6.2l-11.7-6.2c-1.7-0.9-3.8-0.9-5.5,0l-11.7,6.2c-4.3,2.3-9.4-1.4-8.6-6.2
	l2.2-13c0.3-1.9-0.3-3.9-1.7-5.2l-9.5-9.2c-3.5-3.4-1.6-9.4,3.3-10.1l13.1-1.9c1.9-0.3,3.6-1.5,4.5-3.2l5.9-11.9
	C138.1,340.1,144.4,340.1,146.5,344.5z M213.5,344.5l-5.9,11.9c-0.9,1.7-2.5,3-4.4,3.2l-13.1,1.9c-4.8,0.7-6.8,6.7-3.3,10.1l9.5,9.2
	c1.4,1.4,2,3.3,1.7,5.2l-2.2,13c-0.8,4.8,4.2,8.5,8.6,6.2l11.7-6.2c1.7-0.9,3.8-0.9,5.5,0l11.7,6.2c4.3,2.3,9.4-1.4,8.6-6.2l-2.2-13
	c-0.3-1.9,0.3-3.9,1.7-5.2l9.5-9.2c3.5-3.4,1.6-9.4-3.3-10.1l-13.1-1.9c-1.9-0.3-3.6-1.5-4.5-3.2l-5.9-11.9
	C221.9,340.1,215.6,340.1,213.5,344.5z"/>
<path class="st3" d="M336.7,276h-320c-8.3,0-15-6.7-15-15V61c0-8.3,6.7-15,15-15h320c8.3,0,15,6.7,15,15v200
	C351.7,269.3,345,276,336.7,276z"/>
<path class="st4" d="M350,61v200c0,8.3-6.7,15-15,15H160v40c0,8.3-9.4,13-16,8l-63.5-48H48.8c-8.3,0-15-6.7-15-15V61
	c0-8.3,6.7-15,15-15H335C343.3,46,350,52.7,350,61z"/>
<path class="st5" d="M190,141v-10c0-2.8,2.2-5,5-5h175c2.8,0,5,2.2,5,5v10c0,2.8-2.2,5-5,5H195C192.2,146,190,143.8,190,141z
	 M420,166H195c-2.8,0-5,2.2-5,5v10c0,2.8,2.2,5,5,5h225c2.8,0,5-2.2,5-5v-10C425,168.2,422.8,166,420,166z M290,206h-95
	c-2.8,0-5,2.2-5,5v10c0,2.8,2.2,5,5,5h95c2.8,0,5-2.2,5-5v-10C295,208.2,292.8,206,290,206z"/>
<path class="st3" d="M118.1,210.6c-1.2,11.6-11.6,20-23.2,18.8c-11.6-1.2-20-11.6-18.8-23.2c1.2-11.6,11.6-20,23.2-18.8
	C110.9,188.6,119.3,199,118.1,210.6z M160.1,36.1C146.4,19.2,127,8.7,105.4,6.4s-42.7,4-59.6,17.7c-15.4,12.5-25,30.2-27.1,49.9
	C18,81.6,23.4,88.4,31,89.2l12.5,1.3c7.5,0.8,14.3-4.7,15.1-12.2c0.9-9.1,5.4-17.3,12.5-23c8.7-7.1,19.8-10.4,30.9-8.9
	c31.3,4.2,35.6,29.6,34.9,36.1c-0.9,8.3-6.1,15.5-13.5,19.4c0,0-32,24-39.5,40.5c-5.6,12.4,2.7,26.7,16.2,28.1
	c8.6,0.9,16.7-4,20.3-11.8c3.9-8.5,21.3-21.3,21.3-21.3c19.1-10.1,33.8-28.7,34.8-50.3C178,57,160.1,36.1,160.1,36.1z"/>
<path class="st6" d="M176.7,86.3c-0.8,21.6-15.3,40.3-34.3,50.6c0,0-3.9,3-8.5,7c-5.7,5.1-13.9,6.4-20.9,3.3
	c-12.8-5.7-15.6-22.8-5.2-32.2c8.5-7.7,15.9-13.4,15.9-13.4c7.4-4,12.5-11.2,13.3-19.6c0.6-6.5-3.9-31.9-35.3-35.8
	c-11.2-1.4-22.2,2-30.8,9.2c-7.1,5.9-11.4,14.1-12.3,23.3c-0.7,7.5-7.5,13-15,12.2l-12.5-1.2C23.6,89.1,18,82.5,18.7,75
	C20.5,55.2,30,37.3,45.3,24.6C62,10.8,83.1,4.3,104.7,6.4s41.1,12.4,54.9,29.1C159.7,35.5,177.8,56.2,176.7,86.3z"/>
<path class="st3" d="M497,436H230c-8.3,0-15-6.7-15-15V271c0-8.3,6.7-15,15-15h267c8.3,0,15,6.7,15,15v150
	C512,429.3,505.3,436,497,436z"/>
<path class="st6" d="M512,271v150c0,8.3-6.7,15-15,15H354.1L296,479.9c-6.6,5-16,0.3-16-8V436h-20c-8.3,0-15-6.7-15-15V271
	c0-8.3,6.7-15,15-15h237C505.3,256,512,262.7,512,271z"/>
<path class="st5" d="M395,301v10c0,2.8-2.2,5-5,5H240c-2.8,0-5-2.2-5-5v-10c0-2.8,2.2-5,5-5h150C392.8,296,395,298.2,395,301z
	 M390,336H240c-2.8,0-5,2.2-5,5v10c0,2.8,2.2,5,5,5h150c2.8,0,5-2.2,5-5v-10C395,338.2,392.8,336,390,336z M330,376h-90
	c-2.8,0-5,2.2-5,5v10c0,2.8,2.2,5,5,5h90c2.8,0,5-2.2,5-5v-10C335,378.2,332.8,376,330,376z"/>
<path class="st3" d="M472.3,397.7c0,11.7-9.5,21.1-21.1,21.1c-11.7,0-21.1-9.5-21.1-21.1c0-11.7,9.5-21.1,21.1-21.1
	C462.8,376.6,472.3,386.1,472.3,397.7z M451.1,359.7c11,0,20-9,20-20V231c0-8.3-6.7-15-15-15h-10c-8.3,0-15,6.7-15,15v108.7
	C431.1,350.7,440.1,359.7,451.1,359.7z"/>
<path class="st4" d="M471.1,231v85c0,11-9,20-20,20c-11,0-20-9-20-20v-85c0-8.3,6.7-15,15-15h10C464.4,216,471.1,222.7,471.1,231z"
	/>
</svg>
