<?xml version="1.0" encoding="utf-8"?>
<!-- Generator: Adobe Illustrator 28.0.0, SVG Export Plug-In . SVG Version: 6.00 Build 0)  -->
<svg version="1.1" id="Layer_1" xmlns="http://www.w3.org/2000/svg" xmlns:xlink="http://www.w3.org/1999/xlink" x="0px" y="0px"
	 viewBox="0 0 512 512" style="enable-background:new 0 0 512 512;" xml:space="preserve">
<style type="text/css">
	.st0{fill:#8331A7;}
	.st1{fill:#AB7D3F;}
	.st2{fill:#CFACCD;}
	.st3{fill:#B584B1;}
	.st4{fill:#382F3B;}
	.st5{fill:#1B161C;}
	.st6{fill:#A6A6A6;}
	.st7{fill:#F5F5F5;}
	.st8{fill:#A5C1C4;}
	.st9{fill:#F7D99C;}
	.st10{fill:#613C6B;}
	.st11{fill:#9865A2;}
	.st12{fill:#EDDDC7;}
	.st13{fill:#FFF5F5;}
</style>
<path class="st0" d="M500.8,261.6c0,85.9-43.3,161.8-109.3,206.9c-6.7,4.6-15.9-0.2-15.9-8.4c0-34-27.5-61.5-61.5-61.5H49
	c-5.3,0-10.1-2.8-12.9-7.3C12.6,352.4-0.7,306.6,0,257.7C2.1,121.2,114.4,11,250.9,11.2C388.9,11.5,500.8,123.5,500.8,261.6z"/>
<path class="st1" d="M166.6,27.6c0-15.2,12.4-27.6,27.6-27.6h7.2c15.2,0,27.6,12.4,27.6,27.6V92h-62.3V27.6z"/>
<path class="st2" d="M448.6,143.1v122.6c0,5.6-4.6,10.2-10.2,10.2v5.1H131.8v-5.1c-28.2,0-51.1-22.9-51.1-51.1V184
	c0-28.2,22.9-51.1,51.1-51.1v-5.1h261.6v5.1h45C444.1,132.9,448.6,137.4,448.6,143.1z"/>
<path class="st3" d="M169.6,275.9v5.1l-37.8-5.1c-28.2,0-51.1-22.9-51.1-51.1V184c0-28.2,22.9-51.1,51.1-51.1l37.8-5.1v5.1
	c-28.2,0-51.1,22.9-51.1,51.1v40.9C118.5,253.1,141.4,275.9,169.6,275.9z"/>
<path class="st4" d="M387.3,388.4V423H93.7c-8.3,0-16,2-22.9,5.4c-2.9,1.5-6.5,0.7-8.6-1.7c-9.6-11-18.3-22.8-25.9-35.3
	c9.1-8.2,21.1-13.2,34.3-13.2h6.1v-15.8h300.5v15.8C382.7,378.1,387.3,382.7,387.3,388.4z M393.4,30.7H86.9
	c-28.2,0-51.1,22.9-51.1,51.1c0,28.2,22.9,51.1,51.1,51.1h306.6c5.6,0,10.2-4.6,10.2-10.2V40.9C403.7,35.2,399.1,30.7,393.4,30.7z"
	/>
<path class="st5" d="M39.9,132.9c-11.3,0-20.4-9.2-20.4-20.4V51.1c0-11.3,9.1-20.4,20.4-20.4s20.4,9.1,20.4,20.4v61.3
	C60.3,123.7,51.1,132.9,39.9,132.9z"/>
<path class="st6" d="M402.6,107.3H96.1c-14.1,0-25.5-11.4-25.5-25.5c0-14.1,11.4-25.6,25.5-25.6h306.6c2.8,0,5.1,2.3,5.1,5.1v40.9
	C407.8,105,405.5,107.3,402.6,107.3z M452.7,235.1v-61.3c0-2.8-2.3-5.1-5.1-5.1H141c-14.1,0-25.6,11.4-25.6,25.6v20.4
	c0,14.1,11.4,25.6,25.6,25.6h306.6C450.4,240.2,452.7,237.9,452.7,235.1z M386.3,413.9H79.7c-6.9,0-13.2,4.8-17.9,12.5
	c45.9,52.5,113.3,85.6,188.5,85.6c52.3,0,100.9-16.1,141-43.5v-45.9C391.4,417.8,389.1,413.9,386.3,413.9z"/>
<path class="st7" d="M402.6,107.3H128.3c-14.1,0-25.5-11.4-25.5-25.5c0-14.1,11.4-25.6,25.5-25.6h274.4c2.8,0,5.1,2.3,5.1,5.1v40.9
	C407.8,105,405.5,107.3,402.6,107.3z M452.7,235.1v-61.3c0-2.8-2.3-5.1-5.1-5.1H171.7c-14.1,0-25.5,11.4-25.5,25.6v20.4
	c0,14.1,11.4,25.6,25.5,25.6h275.9C450.4,240.2,452.7,237.9,452.7,235.1z M117.7,436c40.4,41.6,95.1,69.3,156.3,74.9
	c43.3-4.1,83.4-19.1,117.4-42.4v-45.9c0-4.8-2.3-8.8-5.1-8.8H126.7c-0.3,0-0.7,0-1,0C114.8,414.7,110.1,428.2,117.7,436z"/>
<path class="st8" d="M166.6,191.4c0-4.2,3.4-7.7,7.7-7.7h278.5V199H174.2C170,199,166.6,195.6,166.6,191.4z M129.3,89.4h278.5V74.1
	H129.3c-4.2,0-7.7,3.4-7.7,7.7C121.6,86,125,89.4,129.3,89.4z M159.9,444.9h231.5v-15.3H159.9c-4.2,0-7.7,3.4-7.7,7.7
	S155.7,444.9,159.9,444.9z M204.4,470.1c0,4.2,3.4,7.7,7.7,7.7h164.8c5-2.9,9.8-6,14.5-9.2v-6.1H212.1
	C207.8,462.4,204.4,465.8,204.4,470.1z M227.4,227.6h225.3v-15.3H227.4c-4.2,0-7.7,3.4-7.7,7.7S223.2,227.6,227.4,227.6z"/>
<path class="st9" d="M191.8,0h2.4c-0.8,0-1.6,0-2.4,0.1V0z M303.5,0H194.2c15.2,0,27.6,12.4,27.6,27.6v165.3c0,3.9,4.1,6.3,7.6,4.5
	l38.9-21.2c6.1-3.3,13.5-3.3,19.6,0l38.9,21.2c3.4,1.9,7.6-0.6,7.6-4.5V30.7C334.2,13.7,320.5,0,303.5,0z"/>
<path class="st10" d="M494.4,378.1H76.6c-28.2,0-51.1-22.9-51.1-51.1c0-28.2,22.9-51.1,51.1-51.1h417.8c5.6,0,10.2,4.6,10.2,10.2
	v81.8C504.6,373.5,500.1,378.1,494.4,378.1z"/>
<path class="st11" d="M494.4,378.1H121.6c-28.2,0-51.1-22.9-51.1-51.1c0-28.2,22.9-51.1,51.1-51.1h372.8c5.6,0,10.2,4.6,10.2,10.2
	v81.8C504.6,373.5,500.1,378.1,494.4,378.1z"/>
<path class="st12" d="M506.9,352.6H90.3c-14.1,0-25.6-11.4-25.6-25.5c0-14.1,11.4-25.6,25.6-25.6h416.6c2.8,0,5.1,2.3,5.1,5.1v40.9
	C512,350.3,509.7,352.6,506.9,352.6z"/>
<path class="st13" d="M128.1,327c0,4.2,3.4,7.7,7.7,7.7H512v12.8c0,2.8-2.3,5.1-5.1,5.1H128.3c-14.1,0-25.5-11.4-25.5-25.5
	c0-14.1,11.4-25.6,25.5-25.6h378.6c2.8,0,5.1,2.3,5.1,5.1v12.8H135.8C131.5,319.4,128.1,322.8,128.1,327z"/>
</svg>
