<?xml version="1.0" encoding="utf-8"?>
<!-- Generator: Adobe Illustrator 28.0.0, SVG Export Plug-In . SVG Version: 6.00 Build 0)  -->
<svg version="1.1" id="Layer_1" xmlns="http://www.w3.org/2000/svg" xmlns:xlink="http://www.w3.org/1999/xlink" x="0px" y="0px"
	 viewBox="0 0 512 512" style="enable-background:new 0 0 512 512;" xml:space="preserve">
<style type="text/css">
	.st0{fill:#8331A7;}
	.st1{fill:#382F3B;}
	.st2{fill:#241E26;}
	.st3{fill:#554759;}
	.st4{fill:#C7B9D6;}
	.st5{fill:#E6E5F0;}
	.st6{fill:#9865A2;}
	.st7{fill:#DACBE0;}
	.st8{fill:#541E69;}
</style>
<path class="st0" d="M500.8,255.6c0.3,103.8-62.5,192.9-152.3,231.2c-2,0.8-4.1,0.9-6.2,0.3c-28.8-9.1-59.7-14-91.9-14
	c-32.3,0-63.2,4.9-92,14.1c-2,0.6-4.1,0.6-6-0.3c-37.1-15.8-69.7-40.4-95-71c-2.2-2.6-2-6.4,0.5-8.8
	c45.9-45.5,74.3-108.7,74.1-178.5c-0.2-55.3-18-106.2-48.3-147.4c-2.9-3.9-2.2-9.4,1.4-12.6C129,29.7,186.7,6.1,249.8,6
	C388.5,5.7,500.3,117,500.8,255.6z"/>
<path class="st1" d="M152.3,383.1h196.2v103.7c-30.1,12.8-63.3,20-98.1,20s-68-7.1-98.1-20V383.1z"/>
<path class="st2" d="M184,461.3v36.5c-10.9-3-21.5-6.7-31.7-11V383.1h196.2v57.8H204.4C193.1,440.9,184,450,184,461.3z"/>
<path class="st1" d="M512,99v286.1c0,16.9-13.7,30.7-30.7,30.7H68.6C32.8,372.5,11.2,317,11.2,256.4c0-74.9,32.9-142.2,85.1-188h385
	C498.3,68.3,512,82.1,512,99z"/>
<path class="st3" d="M97.7,415.8H57.3c-8.5-10.2-16.1-21.2-22.9-32.7c-21.9-37.2-14.1-239.7,19.9-282.4C63.6,89,73.9,78.2,85.1,68.3
	h33.7c-37.1,51.4-59.5,117.9-59.5,190.6C59.3,316.6,73.4,370.4,97.7,415.8z"/>
<path class="st4" d="M212.5,110.9v262c0,5.6-4.6,10.2-10.2,10.2H34.4C12.6,345.9,0,302.6,0,256.4c0-58.8,20.3-112.9,54.3-155.7h148
	C207.9,100.7,212.5,105.3,212.5,110.9z"/>
<path class="st5" d="M469.1,383.1H203.4c-5.6,0-10.2-4.6-10.2-10.2v-262c0-5.6,4.6-10.2,10.2-10.2h265.7c5.6,0,10.2,4.6,10.2,10.2
	v262C479.3,378.5,474.7,383.1,469.1,383.1z"/>
<path class="st6" d="M438.4,173.6v10.2c0,2.8-2.3,5.1-5.1,5.1H264.7c-2.8,0-5.1-2.3-5.1-5.1v-10.2c0-2.8,2.3-5.1,5.1-5.1h168.6
	C436.1,168.5,438.4,170.8,438.4,173.6z M418,209.4H280c-2.8,0-5.1,2.3-5.1,5.1v10.2c0,2.8,2.3,5.1,5.1,5.1h138
	c2.8,0,5.1-2.3,5.1-5.1v-10.2C423.1,211.7,420.8,209.4,418,209.4z"/>
<path class="st7" d="M234,240c0,56.4-45.8,102.2-102.2,102.2S29.6,296.5,29.6,240s45.8-102.2,102.2-102.2S234,183.6,234,240z"/>
<path class="st8" d="M392.4,286v20.4c0,2.8-2.3,5.1-5.1,5.1h-76.6c-2.8,0-5.1-2.3-5.1-5.1V286c0-2.8,2.3-5.1,5.1-5.1h76.6
	C390.1,280.9,392.4,283.2,392.4,286z M124.1,236.5l75.1-32.6c4.1-1.8,4.1-7.6,0-9.4l-75.1-32.6c-5.2-2.3-11.1-2.3-16.3,0l-75.1,32.6
	c-4.1,1.8-4.1,7.6,0,9.4l75.1,32.6C113,238.7,118.9,238.7,124.1,236.5z M165.1,240.4l-37.6,15.3c-7.4,3-15.7,3-23.1,0l-37.6-15.3
	c-3.4-1.4-7,1.1-7,4.7v61.3c0,2.8,2.3,5.1,5.1,5.1H167c2.8,0,5.1-2.3,5.1-5.1v-61.3C172.2,241.5,168.5,239.1,165.1,240.4z
	 M201.8,272.1v-44.7c0-3.5-3.5-5.9-6.8-4.7c-1.9,0.7-3.2,2.6-3.2,4.7l-0.1,44.7c-6,3.5-10.3,13-10.3,24.1H212
	C212,285.1,207.8,275.7,201.8,272.1z"/>
</svg>
