<?xml version="1.0" encoding="utf-8"?>
<!-- Generator: Adobe Illustrator 28.0.0, SVG Export Plug-In . SVG Version: 6.00 Build 0)  -->
<svg version="1.1" id="Capa_1" xmlns="http://www.w3.org/2000/svg" xmlns:xlink="http://www.w3.org/1999/xlink" x="0px" y="0px"
	 viewBox="0 0 512 512" style="enable-background:new 0 0 512 512;" xml:space="preserve">
<style type="text/css">
	.st0{fill:#8331A7;}
	.st1{fill:#9865A2;}
	.st2{fill:#C6ABCC;}
	.st3{fill:#B584B1;}
	.st4{fill:#E6E5F0;}
	.st5{fill:#9F8DB3;}
	.st6{fill:#DACBE0;}
	.st7{fill:#916B9C;}
	.st8{fill:#FFFFFF;}
	.st9{fill:#944854;}
	.st10{fill:#FFF5F5;}
	.st11{fill:#BAACBF;}
	.st12{fill:#4B424F;}
	.st13{fill:#796D7D;}
	.st14{fill:#8A622D;}
	.st15{fill:#DEC27F;}
	.st16{fill:#FFE9BD;}
	.st17{fill:#BA8743;}
	.st18{fill:#382F3B;}
	.st19{fill:#1F1A21;}
</style>
<path class="st0" d="M512,256c0,39.7-9,77.3-25.1,110.8c-1.4,2.8-8.9-1.5-10.3,1.2c-8.2,15.5-17.9,30.1-29,43.6
	c-1.7,2.1,2.6,11.4,0.8,13.4c-46.9,53.3-115.7,87-192.3,87C114.6,512,0,397.4,0,256S114.6,0,256,0S512,114.6,512,256z"/>
<path class="st1" d="M168.9,414.1h132.7c18.6,0,33.8,15.1,33.8,33.8s-15.1,33.8-33.8,33.8H168.9c-18.6,0-33.8-15.1-33.8-33.8
	C135.1,429.2,150.2,414.1,168.9,414.1L168.9,414.1z"/>
<path class="st2" d="M200.4,414.1h132.7c18.6,0,33.8,15.1,33.8,33.8s-15.1,33.8-33.8,33.8H200.4c-18.6,0-33.8-15.1-33.8-33.8
	C166.7,429.2,181.8,414.1,200.4,414.1z"/>
<path class="st1" d="M327.1,462.4h36.5c11,0,20,9,20,20s-9,20-20,20h-36.5c-11,0-20-9-20-20S316.1,462.4,327.1,462.4L327.1,462.4z"
	/>
<path class="st3" d="M358.7,462.4h36.5c11,0,20,9,20,20s-9,20-20,20h-36.5c-11,0-20-9-20-20S347.7,462.4,358.7,462.4z"/>
<path class="st3" d="M314.5,455.4H197.5c-4.1,0-7.5-3.4-7.5-7.5s3.4-7.5,7.5-7.5h117.1c4.1,0,7.5,3.4,7.5,7.5
	S318.7,455.4,314.5,455.4z"/>
<path class="st4" d="M49.3,407.1V135.8c0-5.5,4.5-10,10-10h417.1c3.7,6.3,7.2,12.8,10.4,19.4v221.6c-10.2,21.2-23.2,40.8-38.6,58.2
	H63.7C58.7,419.3,53.9,413.3,49.3,407.1L49.3,407.1z"/>
<path class="st5" d="M73.5,425H35.2c-5.5,0-10-4.5-10-10V135.8c0-5.5,4.5-10,10-10h38.4c-5.5,0-10,4.5-10,10V415
	C63.5,420.5,68,425,73.5,425z"/>
<path class="st6" d="M353.2,203.8h-236c-5.5,0-10-4.5-10-10V28.7c0-5.5,4.5-10,10-10h236c5.5,0,10,4.5,10,10v165.1
	C363.2,199.3,358.7,203.8,353.2,203.8z"/>
<path class="st7" d="M124.3,203.8H99.8c-5.5,0-10-4.5-10-10V28.7c0-5.5,4.5-10,10-10h24.5c-5.5,0-10,4.5-10,10v165.1
	C114.3,199.3,118.7,203.8,124.3,203.8z"/>
<path class="st8" d="M132.6,61.2c0-4.1,3.4-7.5,7.5-7.5h128.6c4.1,0,7.5,3.4,7.5,7.5s-3.4,7.5-7.5,7.5H140.1
	C135.9,68.7,132.6,65.4,132.6,61.2z M268.7,87.1H140.1c-4.1,0-7.5,3.4-7.5,7.5s3.4,7.5,7.5,7.5h128.6c4.1,0,7.5-3.4,7.5-7.5
	S272.9,87.1,268.7,87.1z M268.7,120.4H140.1c-4.1,0-7.5,3.4-7.5,7.5c0,4.1,3.4,7.5,7.5,7.5h128.6c4.1,0,7.5-3.4,7.5-7.5
	S272.9,120.4,268.7,120.4z M176.4,153.7h-36.3c-4.1,0-7.5,3.4-7.5,7.5s3.4,7.5,7.5,7.5h36.3c4.1,0,7.5-3.4,7.5-7.5
	S180.5,153.7,176.4,153.7z M214,153.7h-8c-4.1,0-7.5,3.4-7.5,7.5s3.4,7.5,7.5,7.5h8c4.1,0,7.5-3.4,7.5-7.5
	C221.5,157.1,218.1,153.7,214,153.7z"/>
<path class="st9" d="M452,387.6H60c-4.1,0-7.5-3.4-7.5-7.5s3.4-7.5,7.5-7.5h392c4.1,0,7.5,3.4,7.5,7.5
	C459.5,384.3,456.2,387.6,452,387.6z"/>
<path class="st10" d="M116.8,380.1c0,8.3-6.7,15-15,15s-15-6.7-15-15s6.7-15,15-15S116.8,371.8,116.8,380.1z"/>
<path class="st11" d="M211.4,327.6v-92.8c0-3.9,4.2-6.3,7.5-4.3l79.1,46.4c3.3,1.9,3.3,6.7,0,8.6L219,331.9
	C215.6,333.9,211.4,331.5,211.4,327.6L211.4,327.6z"/>
<path class="st10" d="M298.1,285.5l-64.4,37.8v-84.2l64.4,37.8C301.4,278.8,301.4,283.6,298.1,285.5z"/>
<path class="st12" d="M347.5,205.2L193,108.6c-4.1-2.6-4.1-8.5,0-11.1L347.5,1c2.1-1.3,4.8-1.3,6.9,0l154.5,96.6
	c4.1,2.6,4.1,8.5,0,11.1l-154.5,96.6C352.3,206.5,349.6,206.5,347.5,205.2z"/>
<path class="st13" d="M372.7,193.8l-18.2,11.4c-2.1,1.3-4.8,1.3-6.9,0L193,108.6c-4.1-2.6-4.1-8.5,0-11.1L347.5,1
	c2.1-1.3,4.8-1.3,6.9,0l18.2,11.4L236.4,97.6c-4.1,2.6-4.1,8.5,0,11.1L372.7,193.8z"/>
<path class="st14" d="M483.3,214.5c-4,0-7.2-3.2-7.2-7.2V74.4c0-4,3.2-7.2,7.2-7.2s7.2,3.2,7.2,7.2v132.9
	C490.4,211.3,487.2,214.5,483.3,214.5z"/>
<path class="st15" d="M462,170c0-6,4.8-10.8,10.8-10.8h21.4c6,0,10.8,4.8,10.8,10.8v71.5h-43L462,170L462,170z"/>
<path class="st16" d="M505,170v71.5h-26.2V170c0-6,4.8-10.8,10.8-10.8h4.5C500.2,159.1,505,164,505,170z"/>
<path class="st17" d="M500.4,156.4c0,4.1-3.4,7.5-7.5,7.5h-18.6c-4.1,0-7.5-3.4-7.5-7.5s3.4-7.5,7.5-7.5h18.6
	C497,148.9,500.4,152.3,500.4,156.4z"/>
<path class="st18" d="M423.7,115.1v102.9c0,3-2.6,5.3-5.5,5c-4.5-0.5-9.1-0.8-13.7-0.8c-18.2,0-35.5,4.1-51.4,11.6
	c-1.4,0.6-3,0.6-4.3,0c-15.9-7.5-33.2-11.6-51.4-11.6c-4.6,0-9.2,0.3-13.7,0.8c-2.9,0.3-5.5-2-5.5-5V115.1c0-3.3,1.7-6.5,4.5-8.3
	c20.2-13.2,43.5-20.7,68.3-20.7c24.8,0,48.1,7.5,68.3,20.7C422.1,108.7,423.7,111.8,423.7,115.1L423.7,115.1z"/>
<path class="st19" d="M306,222.6c-2.8-0.2-5.7-0.3-8.6-0.3c-4.6,0-9.2,0.3-13.7,0.8c-2.9,0.3-5.5-2-5.5-5V115.1
	c0-3.3,1.7-6.5,4.5-8.3c7.4-4.8,15.2-8.9,23.3-12.1V222.6z"/>
</svg>
